<?xml version="1.0" encoding="UTF-8"?>
<svg xmlns="http://www.w3.org/2000/svg" xmlns:xlink="http://www.w3.org/1999/xlink" aria-hidden="true" role="img" class="iconify iconify--logos" preserveAspectRatio="xMidYMid meet" viewBox="65 65 325 300">
<path d="M0 0 C6.13580461 3.78976167 10.18632412 9.57080481 12.2578125 16.39453125 C12.46913459 19.11770455 12.40195937 21.65574069 12.2578125 24.39453125 C13.10988281 24.49765625 13.96195313 24.60078125 14.83984375 24.70703125 C29.55907803 27.66770009 41.91819669 38.53630049 50.32421875 50.43359375 C61.53994198 67.60837801 61.88883033 84.90528545 62.0078125 104.83203125 C62.03602349 107.22072427 62.06595791 109.60939759 62.09765625 111.99804688 C62.17090568 117.79679766 62.222904 123.59542942 62.2578125 129.39453125 C62.87269531 129.64775146 63.48757813 129.90097168 64.12109375 130.16186523 C64.92933594 130.50548096 65.73757813 130.84909668 66.5703125 131.203125 C67.37082031 131.53884521 68.17132813 131.87456543 68.99609375 132.22045898 C73.31956526 134.46479993 75.71691958 137.77185249 77.2578125 142.39453125 C77.89032035 149.97425648 78.2203574 157.21418392 73.2578125 163.39453125 C70.0902215 165.96819894 67.32472447 167.76885249 63.2578125 168.39453125 C63.79549471 173.77135338 65.75092485 177.72131427 68.2578125 182.39453125 C68.92818801 183.72600371 69.59589922 185.0588318 70.2578125 186.39453125 C70.9178125 186.39453125 71.5778125 186.39453125 72.2578125 186.39453125 C72.47953125 185.82089844 72.70125 185.24726563 72.9296875 184.65625 C74.66467665 181.70166554 76.74406027 180.21943554 79.5078125 178.20703125 C80.44109375 177.51222656 81.374375 176.81742188 82.3359375 176.1015625 C85.45679212 174.27828246 87.66912197 173.64134628 91.2578125 173.39453125 C94.96812597 174.63130241 96.75853898 175.68128336 99.0078125 178.89453125 C100.70209952 183.63853491 101.50605946 188.42411705 102.2578125 193.39453125 C102.70511719 192.85183594 103.15242187 192.30914062 103.61328125 191.75 C111.07011589 182.92581402 111.07011589 182.92581402 117.2578125 181.89453125 C120.2578125 182.39453125 120.2578125 182.39453125 122.9453125 184.14453125 C126.27963245 188.83060253 127.16250877 193.81115372 128.2578125 199.39453125 C128.65613281 198.76804687 129.05445313 198.1415625 129.46484375 197.49609375 C129.99464844 196.67882812 130.52445312 195.8615625 131.0703125 195.01953125 C131.59238281 194.20742188 132.11445313 193.3953125 132.65234375 192.55859375 C134.97726411 189.4247595 136.73181253 188.483852 140.5703125 187.83203125 C145.15494898 188.53138258 146.32505105 189.93496543 149.03515625 193.51953125 C151.53653261 197.35550777 152.2578125 199.79142341 152.2578125 204.39453125 C154.0521875 204.54921875 154.0521875 204.54921875 155.8828125 204.70703125 C161.49221137 205.43912211 165.02812378 207.16484253 169.0703125 211.20703125 C171.38446325 214.57907948 172.2578125 216.32731664 172.2578125 220.39453125 C170.5589592 225.11356819 168.46576727 227.70860267 164.2578125 230.39453125 C157.83298689 233.28209332 151.23897904 235.44502709 144.4453125 237.26953125 C143.50937256 237.5214624 142.57343262 237.77339355 141.60913086 238.03295898 C123.50346341 242.78519936 105.10045261 246.21129169 86.6328125 249.20703125 C84.72254272 249.5174939 84.72254272 249.5174939 82.77368164 249.83422852 C75.61478814 250.96223038 68.48554725 251.85518962 61.2578125 252.39453125 C61.61875 253.39613281 61.9796875 254.39773438 62.3515625 255.4296875 C62.82088049 256.77193695 63.2895986 258.11439626 63.7578125 259.45703125 C63.99628906 260.11380859 64.23476563 260.77058594 64.48046875 261.44726562 C66.00600647 265.87132502 66.91335131 269.66918903 66.2578125 274.39453125 C62.83400784 279.3431201 60.25723817 281.27033441 54.41796875 283.16796875 C53.77339218 283.38143951 53.12881561 283.59491028 52.46470642 283.81484985 C51.11041867 284.25905091 49.75302047 284.6938699 48.39282227 285.11962891 C46.32247513 285.76885309 44.26392279 286.44808528 42.20507812 287.1328125 C28.13625215 291.70291291 28.13625215 291.70291291 22.5078125 289.14453125 C20.03226104 287.21910234 19.14650144 286.3837577 18.2578125 283.39453125 C17.59718813 276.45797536 17.59718813 276.45797536 19.859375 272.81640625 C22.72914726 269.91859061 25.17465511 268.92363634 29.0078125 267.58203125 C30.17828125 267.16308594 31.34875 266.74414062 32.5546875 266.3125 C33.44671875 266.00957031 34.33875 265.70664062 35.2578125 265.39453125 C34.79958782 261.92511579 34.36649567 258.72058076 33.2578125 255.39453125 C18.0778125 255.39453125 2.8978125 255.39453125 -12.7421875 255.39453125 C-14.26338353 263.39482027 -14.26338353 263.39482027 -15.76293945 271.39916992 C-15.95847412 272.40181885 -16.15400879 273.40446777 -16.35546875 274.4375 C-16.64611206 275.9692688 -16.64611206 275.9692688 -16.94262695 277.53198242 C-18.02840934 281.41924915 -19.25751455 284.40487358 -22.6862793 286.69042969 C-30.37373584 289.32320782 -39.72864661 286.57669872 -47.4296875 285.14453125 C-48.62658203 284.93957031 -49.82347656 284.73460937 -51.05664062 284.5234375 C-62.04805392 282.50498097 -62.04805392 282.50498097 -66.7421875 278.39453125 C-68.47850386 274.92189852 -68.34409152 271.18260112 -67.7421875 267.39453125 C-65.56059605 264.63883678 -63.87041256 262.95864378 -60.7421875 261.39453125 C-54.56097772 260.99998594 -48.78704128 262.17025707 -42.7421875 263.39453125 C-42.0821875 260.09453125 -41.4221875 256.79453125 -40.7421875 253.39453125 C-41.44601563 253.33136719 -42.14984375 253.26820313 -42.875 253.203125 C-54.07927551 251.81356081 -65.29744469 247.37207325 -72.99609375 238.8125 C-84.25343755 223.22347134 -83.9956802 207.94397039 -82.91992188 189.45654297 C-82.74892503 186.51060551 -82.59386534 183.5643334 -82.4453125 180.6171875 C-82.22239033 176.20895177 -81.98644911 171.80163439 -81.7421875 167.39453125 C-82.56009766 167.82765625 -82.56009766 167.82765625 -83.39453125 168.26953125 C-89.72763847 171.38736865 -95.04123775 172.80314917 -101.9453125 170.734375 C-107.31831373 168.43592447 -109.35124846 165.65459714 -111.7421875 160.39453125 C-113.58429161 154.86821893 -113.81742795 148.51473835 -111.90625 142.96875 C-108.40015515 136.72131253 -103.29374092 134.57838239 -96.7421875 132.39453125 C-94.49180883 132.40018547 -92.24140834 132.44713144 -89.9921875 132.51953125 C-82.22508193 132.83504613 -82.22508193 132.83504613 -75.7421875 129.39453125 C-74.40513523 124.76063776 -74.03031666 120.19496891 -73.7421875 115.39453125 C-73.649375 114.44964844 -73.5565625 113.50476563 -73.4609375 112.53125 C-73.13106272 107.22851289 -74.09878912 103.70146611 -76.8671875 99.18359375 C-81.93212519 94.35079904 -88.54085946 92.70801266 -95.265625 91.61328125 C-96.05184235 91.47305542 -96.83805969 91.33282959 -97.64810181 91.18835449 C-100.13590043 90.7452758 -102.62600185 90.31811995 -105.1171875 89.89453125 C-135.71005345 84.67033966 -135.71005345 84.67033966 -144.53125 74.2890625 C-146.09541595 72.05068709 -147.45071029 69.79949362 -148.7421875 67.39453125 C-149.0825 66.77964844 -149.4228125 66.16476563 -149.7734375 65.53125 C-153.00286223 58.54911413 -153.08358378 49.78834927 -150.86328125 42.515625 C-147.7192723 35.71917001 -143.31440325 29.88836693 -136.3046875 26.95703125 C-135.4590625 26.77140625 -134.6134375 26.58578125 -133.7421875 26.39453125 C-133.649375 25.03328125 -133.649375 25.03328125 -133.5546875 23.64453125 C-132.7421875 20.39453125 -132.7421875 20.39453125 -130.8046875 18.01953125 C-126.43348221 15.7001162 -122.58940268 15.45910376 -117.7421875 16.39453125 C-115.23721967 17.82241232 -113.7560584 19.27466715 -111.7421875 21.39453125 C-109.52270487 20.36405717 -107.82944979 19.47856161 -106.0546875 17.76953125 C-102.41995454 15.60833868 -98.85532884 15.58646277 -94.7421875 16.39453125 C-93.36739097 17.64143973 -91.99445012 18.89313163 -90.69140625 20.21484375 C-86.1454295 22.96611625 -79.92362085 22.31645486 -74.7421875 22.39453125 C-74.5359375 21.23953125 -74.3296875 20.08453125 -74.1171875 18.89453125 C-72.61798131 13.06313612 -69.72359953 8.42394365 -64.69921875 5.00390625 C-58.42641691 1.85085187 -51.9844325 1.03142745 -45.25 3.1953125 C-41.4170028 4.82276541 -37.90439003 6.64478992 -34.7421875 9.39453125 C-34.5359375 8.83765625 -34.3296875 8.28078125 -34.1171875 7.70703125 C-31.40018319 3.137524 -26.79226773 -0.19840151 -21.84765625 -2.09765625 C-14.41904747 -3.88934297 -6.92619844 -3.15130894 0 0 Z " fill="#6FC46E" transform="translate(253.7421875,108.60546875)"/>
<path d="M0 0 C6.13580461 3.78976167 10.18632412 9.57080481 12.2578125 16.39453125 C12.46913459 19.11770455 12.40195937 21.65574069 12.2578125 24.39453125 C13.10988281 24.49765625 13.96195313 24.60078125 14.83984375 24.70703125 C29.55907803 27.66770009 41.91819669 38.53630049 50.32421875 50.43359375 C61.53994198 67.60837801 61.88883033 84.90528545 62.0078125 104.83203125 C62.03602349 107.22072427 62.06595791 109.60939759 62.09765625 111.99804688 C62.17090568 117.79679766 62.222904 123.59542942 62.2578125 129.39453125 C62.87269531 129.64775146 63.48757813 129.90097168 64.12109375 130.16186523 C64.92933594 130.50548096 65.73757813 130.84909668 66.5703125 131.203125 C67.37082031 131.53884521 68.17132813 131.87456543 68.99609375 132.22045898 C73.31956526 134.46479993 75.71691958 137.77185249 77.2578125 142.39453125 C77.89032035 149.97425648 78.2203574 157.21418392 73.2578125 163.39453125 C70.0902215 165.96819894 67.32472447 167.76885249 63.2578125 168.39453125 C63.79549471 173.77135338 65.75092485 177.72131427 68.2578125 182.39453125 C68.92818801 183.72600371 69.59589922 185.0588318 70.2578125 186.39453125 C70.9178125 186.39453125 71.5778125 186.39453125 72.2578125 186.39453125 C72.47953125 185.82089844 72.70125 185.24726563 72.9296875 184.65625 C74.66467665 181.70166554 76.74406027 180.21943554 79.5078125 178.20703125 C80.44109375 177.51222656 81.374375 176.81742188 82.3359375 176.1015625 C85.45679212 174.27828246 87.66912197 173.64134628 91.2578125 173.39453125 C94.96812597 174.63130241 96.75853898 175.68128336 99.0078125 178.89453125 C100.70209952 183.63853491 101.50605946 188.42411705 102.2578125 193.39453125 C102.70511719 192.85183594 103.15242187 192.30914062 103.61328125 191.75 C111.07011589 182.92581402 111.07011589 182.92581402 117.2578125 181.89453125 C120.2578125 182.39453125 120.2578125 182.39453125 122.9453125 184.14453125 C126.27963245 188.83060253 127.16250877 193.81115372 128.2578125 199.39453125 C128.65613281 198.76804687 129.05445313 198.1415625 129.46484375 197.49609375 C129.99464844 196.67882812 130.52445312 195.8615625 131.0703125 195.01953125 C131.59238281 194.20742188 132.11445313 193.3953125 132.65234375 192.55859375 C134.97726411 189.4247595 136.73181253 188.483852 140.5703125 187.83203125 C145.15494898 188.53138258 146.32505105 189.93496543 149.03515625 193.51953125 C151.53653261 197.35550777 152.2578125 199.79142341 152.2578125 204.39453125 C154.0521875 204.54921875 154.0521875 204.54921875 155.8828125 204.70703125 C161.49221137 205.43912211 165.02812378 207.16484253 169.0703125 211.20703125 C171.38446325 214.57907948 172.2578125 216.32731664 172.2578125 220.39453125 C170.5589592 225.11356819 168.46576727 227.70860267 164.2578125 230.39453125 C157.83298689 233.28209332 151.23897904 235.44502709 144.4453125 237.26953125 C143.50937256 237.5214624 142.57343262 237.77339355 141.60913086 238.03295898 C123.50346341 242.78519936 105.10045261 246.21129169 86.6328125 249.20703125 C84.72254272 249.5174939 84.72254272 249.5174939 82.77368164 249.83422852 C75.61478814 250.96223038 68.48554725 251.85518962 61.2578125 252.39453125 C61.61875 253.39613281 61.9796875 254.39773438 62.3515625 255.4296875 C62.82088049 256.77193695 63.2895986 258.11439626 63.7578125 259.45703125 C63.99628906 260.11380859 64.23476563 260.77058594 64.48046875 261.44726562 C66.00600647 265.87132502 66.91335131 269.66918903 66.2578125 274.39453125 C62.83400784 279.3431201 60.25723817 281.27033441 54.41796875 283.16796875 C53.77339218 283.38143951 53.12881561 283.59491028 52.46470642 283.81484985 C51.11041867 284.25905091 49.75302047 284.6938699 48.39282227 285.11962891 C46.32247513 285.76885309 44.26392279 286.44808528 42.20507812 287.1328125 C28.13625215 291.70291291 28.13625215 291.70291291 22.5078125 289.14453125 C20.03226104 287.21910234 19.14650144 286.3837577 18.2578125 283.39453125 C17.59718813 276.45797536 17.59718813 276.45797536 19.859375 272.81640625 C22.72914726 269.91859061 25.17465511 268.92363634 29.0078125 267.58203125 C30.17828125 267.16308594 31.34875 266.74414062 32.5546875 266.3125 C33.44671875 266.00957031 34.33875 265.70664062 35.2578125 265.39453125 C34.79958782 261.92511579 34.36649567 258.72058076 33.2578125 255.39453125 C18.0778125 255.39453125 2.8978125 255.39453125 -12.7421875 255.39453125 C-14.26338353 263.39482027 -14.26338353 263.39482027 -15.76293945 271.39916992 C-15.95847412 272.40181885 -16.15400879 273.40446777 -16.35546875 274.4375 C-16.64611206 275.9692688 -16.64611206 275.9692688 -16.94262695 277.53198242 C-18.02840934 281.41924915 -19.25751455 284.40487358 -22.6862793 286.69042969 C-30.37373584 289.32320782 -39.72864661 286.57669872 -47.4296875 285.14453125 C-48.62658203 284.93957031 -49.82347656 284.73460937 -51.05664062 284.5234375 C-62.04805392 282.50498097 -62.04805392 282.50498097 -66.7421875 278.39453125 C-68.47850386 274.92189852 -68.34409152 271.18260112 -67.7421875 267.39453125 C-65.56059605 264.63883678 -63.87041256 262.95864378 -60.7421875 261.39453125 C-54.56097772 260.99998594 -48.78704128 262.17025707 -42.7421875 263.39453125 C-42.0821875 260.09453125 -41.4221875 256.79453125 -40.7421875 253.39453125 C-41.44601563 253.33136719 -42.14984375 253.26820313 -42.875 253.203125 C-54.07927551 251.81356081 -65.29744469 247.37207325 -72.99609375 238.8125 C-84.25343755 223.22347134 -83.9956802 207.94397039 -82.91992188 189.45654297 C-82.74892503 186.51060551 -82.59386534 183.5643334 -82.4453125 180.6171875 C-82.22239033 176.20895177 -81.98644911 171.80163439 -81.7421875 167.39453125 C-82.56009766 167.82765625 -82.56009766 167.82765625 -83.39453125 168.26953125 C-89.72763847 171.38736865 -95.04123775 172.80314917 -101.9453125 170.734375 C-107.31831373 168.43592447 -109.35124846 165.65459714 -111.7421875 160.39453125 C-113.58429161 154.86821893 -113.81742795 148.51473835 -111.90625 142.96875 C-108.40015515 136.72131253 -103.29374092 134.57838239 -96.7421875 132.39453125 C-94.49180883 132.40018547 -92.24140834 132.44713144 -89.9921875 132.51953125 C-82.22508193 132.83504613 -82.22508193 132.83504613 -75.7421875 129.39453125 C-74.40513523 124.76063776 -74.03031666 120.19496891 -73.7421875 115.39453125 C-73.649375 114.44964844 -73.5565625 113.50476563 -73.4609375 112.53125 C-73.13106272 107.22851289 -74.09878912 103.70146611 -76.8671875 99.18359375 C-81.93212519 94.35079904 -88.54085946 92.70801266 -95.265625 91.61328125 C-96.05184235 91.47305542 -96.83805969 91.33282959 -97.64810181 91.18835449 C-100.13590043 90.7452758 -102.62600185 90.31811995 -105.1171875 89.89453125 C-135.71005345 84.67033966 -135.71005345 84.67033966 -144.53125 74.2890625 C-146.09541595 72.05068709 -147.45071029 69.79949362 -148.7421875 67.39453125 C-149.0825 66.77964844 -149.4228125 66.16476563 -149.7734375 65.53125 C-153.00286223 58.54911413 -153.08358378 49.78834927 -150.86328125 42.515625 C-147.7192723 35.71917001 -143.31440325 29.88836693 -136.3046875 26.95703125 C-135.4590625 26.77140625 -134.6134375 26.58578125 -133.7421875 26.39453125 C-133.649375 25.03328125 -133.649375 25.03328125 -133.5546875 23.64453125 C-132.7421875 20.39453125 -132.7421875 20.39453125 -130.8046875 18.01953125 C-126.43348221 15.7001162 -122.58940268 15.45910376 -117.7421875 16.39453125 C-115.23721967 17.82241232 -113.7560584 19.27466715 -111.7421875 21.39453125 C-109.52270487 20.36405717 -107.82944979 19.47856161 -106.0546875 17.76953125 C-102.41995454 15.60833868 -98.85532884 15.58646277 -94.7421875 16.39453125 C-93.36739097 17.64143973 -91.99445012 18.89313163 -90.69140625 20.21484375 C-86.1454295 22.96611625 -79.92362085 22.31645486 -74.7421875 22.39453125 C-74.5359375 21.23953125 -74.3296875 20.08453125 -74.1171875 18.89453125 C-72.61798131 13.06313612 -69.72359953 8.42394365 -64.69921875 5.00390625 C-58.42641691 1.85085187 -51.9844325 1.03142745 -45.25 3.1953125 C-41.4170028 4.82276541 -37.90439003 6.64478992 -34.7421875 9.39453125 C-34.5359375 8.83765625 -34.3296875 8.28078125 -34.1171875 7.70703125 C-31.40018319 3.137524 -26.79226773 -0.19840151 -21.84765625 -2.09765625 C-14.41904747 -3.88934297 -6.92619844 -3.15130894 0 0 Z M-124.7421875 23.39453125 C-126.01472186 27.04246309 -127.07047944 30.58818555 -127.7421875 34.39453125 C-128.5878125 34.27078125 -129.4334375 34.14703125 -130.3046875 34.01953125 C-135.18291224 34.55170122 -137.49818842 36.85562316 -140.7421875 40.39453125 C-144.68901488 45.74184576 -144.40513014 51.99756525 -143.7421875 58.39453125 C-143.1046242 60.07254652 -142.44176601 61.74140931 -141.7421875 63.39453125 C-137.65932326 63.89841209 -133.57582557 64.39696393 -129.4921875 64.89453125 C-128.33332031 65.03761719 -127.17445312 65.18070313 -125.98046875 65.328125 C-124.86542969 65.46347656 -123.75039062 65.59882813 -122.6015625 65.73828125 C-121.57514648 65.86396484 -120.54873047 65.98964844 -119.49121094 66.11914062 C-116.53930488 66.46098372 -116.53930488 66.46098372 -112.7421875 66.39453125 C-112.36707031 65.61207031 -111.99195313 64.82960937 -111.60546875 64.0234375 C-111.09371094 63.01152344 -110.58195312 61.99960938 -110.0546875 60.95703125 C-109.55582031 59.94769531 -109.05695313 58.93835938 -108.54296875 57.8984375 C-106.7421875 55.39453125 -106.7421875 55.39453125 -104.03515625 54.546875 C-103.27847656 54.49660156 -102.52179688 54.44632813 -101.7421875 54.39453125 C-99.27032295 57.35799911 -98.07970389 59.93494814 -97.0546875 63.64453125 C-96.67763672 64.98257813 -96.67763672 64.98257813 -96.29296875 66.34765625 C-96.11121094 67.023125 -95.92945313 67.69859375 -95.7421875 68.39453125 C-93.33571932 68.31630111 -93.33571932 68.31630111 -90.7421875 67.39453125 C-88.94237329 64.95232364 -88.94237329 64.95232364 -87.6171875 61.95703125 C-85.02469871 56.58287206 -85.02469871 56.58287206 -81.7421875 54.39453125 C-79.3046875 54.39453125 -79.3046875 54.39453125 -76.7421875 55.39453125 C-72.65587292 60.08177445 -71.29124556 65.45647534 -69.7421875 71.39453125 C-68.7521875 71.39453125 -67.7621875 71.39453125 -66.7421875 71.39453125 C-66.48824219 70.5025 -66.23429687 69.61046875 -65.97265625 68.69140625 C-65.62847656 67.5209375 -65.28429687 66.35046875 -64.9296875 65.14453125 C-64.59324219 63.984375 -64.25679688 62.82421875 -63.91015625 61.62890625 C-62.84257164 58.6725181 -61.77789667 56.75105419 -59.7421875 54.39453125 C-57.5546875 54.39453125 -57.5546875 54.39453125 -54.7421875 55.39453125 C-50.30176127 60.48639725 -48.03638787 67.13995146 -45.7421875 73.39453125 C-39.68265753 73.02767035 -34.42925143 72.11024077 -28.7265625 70.02734375 C-26.33752039 69.26548386 -24.23294293 69.1534904 -21.7421875 69.39453125 C-21.2471875 71.37453125 -21.2471875 71.37453125 -20.7421875 73.39453125 C-22.26283544 73.85347932 -23.78371698 74.31165339 -25.3046875 74.76953125 C-26.15160156 75.02476562 -26.99851562 75.28 -27.87109375 75.54296875 C-28.81855469 75.82398438 -29.76601562 76.105 -30.7421875 76.39453125 C-31.75087891 76.73508545 -32.75957031 77.07563965 -33.79882812 77.42651367 C-38.41712659 78.72894202 -42.93381935 78.75390608 -47.70703125 78.734375 C-49.1900901 78.73025856 -49.1900901 78.73025856 -50.70310974 78.72605896 C-63.96374387 78.53084491 -77.10304336 76.82496877 -90.24902344 75.20788574 C-93.71618193 74.78478534 -97.18536465 74.37895273 -100.65429688 73.97070312 C-105.71264058 73.371998 -110.77034911 72.7683017 -115.82641602 72.15063477 C-116.82737808 72.02850113 -117.82834015 71.90636749 -118.8596344 71.78053284 C-120.90018015 71.50728413 -122.93557491 71.19420331 -124.96592712 70.8533783 C-127.42024801 70.44773987 -129.63784686 70.289284 -132.1171875 70.33203125 C-133.9115625 70.36296875 -133.9115625 70.36296875 -135.7421875 70.39453125 C-130.0261272 77.06326827 -122.48084445 78.98573598 -114.125 80.32421875 C-112.28248101 80.64803336 -110.44003529 80.97226507 -108.59765625 81.296875 C-105.73340717 81.78641903 -102.86827819 82.2693508 -100.00146484 82.74365234 C-76.29692304 86.70730919 -76.29692304 86.70730919 -70.03759766 94.52294922 C-62.88547466 105.03896177 -65.73626808 118.11809848 -67.45703125 129.98046875 C-67.63222794 131.2398526 -67.80742462 132.49923645 -67.9879303 133.79678345 C-68.45043988 137.11624801 -68.91937554 140.43465171 -69.39239502 143.75262451 C-70.05547817 148.40773028 -70.71100495 153.06386744 -71.36073303 157.72085571 C-71.70531766 160.18815772 -72.05446516 162.65482878 -72.40916443 165.12069702 C-74.1792262 177.74112111 -74.94480572 190.34307048 -75.0546875 203.08203125 C-75.08369141 204.21447266 -75.11269531 205.34691406 -75.14257812 206.51367188 C-75.2226354 217.21055538 -72.71595347 226.07532562 -65.8046875 234.38671875 C-58.74247593 241.26167471 -50.18926516 244.48597391 -40.5546875 245.45703125 C-39.86955078 245.53501953 -39.18441406 245.61300781 -38.47851562 245.69335938 C15.36912994 251.43394538 70.55004904 246.3370052 123.1953125 234.33203125 C123.89826447 234.17239899 124.60121643 234.01276672 125.32546997 233.84829712 C132.95141544 232.0980672 140.47445479 230.10815923 147.94921875 227.79296875 C148.60856918 227.58917099 149.26791962 227.38537323 149.94725037 227.17539978 C154.67583049 225.67257049 158.93958705 223.82353307 163.2578125 221.39453125 C163.2578125 219.74453125 163.2578125 218.09453125 163.2578125 216.39453125 C162.2884375 215.75515625 161.3190625 215.11578125 160.3203125 214.45703125 C159.50240234 213.91755859 159.50240234 213.91755859 158.66796875 213.3671875 C149.82970125 209.80036642 138.37472762 211.09047172 128.91870117 210.91772461 C115.63563626 210.66458392 102.77837493 209.59240629 90.0078125 205.64453125 C88.72342285 205.24983643 88.72342285 205.24983643 87.41308594 204.84716797 C74.87128869 200.83312344 65.16549497 194.35646924 58.8828125 182.51953125 C57.00191351 178.57812489 55.96183753 175.21803704 55.4453125 170.89453125 C55.17181062 168.46516292 55.17181062 168.46516292 54.2578125 166.39453125 C52.06652885 164.91487239 50.08189958 164.13962668 47.546875 163.40625 C45.2578125 162.39453125 45.2578125 162.39453125 43.734375 159.83203125 C39.61672889 155.77933224 34.55306731 156.6911149 29.0078125 156.70703125 C21.7588568 156.65217885 15.22125893 156.52602522 8.2578125 154.39453125 C8.2578125 152.74453125 8.2578125 151.09453125 8.2578125 149.39453125 C17.96768018 149.86211709 27.67777823 150.33436428 37.3828125 150.89453125 C38.66414062 150.96671875 39.94546875 151.03890625 41.265625 151.11328125 C44.2578125 151.39453125 44.2578125 151.39453125 46.2578125 152.39453125 C46.6290625 153.17828125 47.0003125 153.96203125 47.3828125 154.76953125 C50.02140105 158.46355522 52.86732913 159.5211136 57.2578125 160.39453125 C60.21950498 160.47752088 62.31965428 160.10374185 65.2578125 159.39453125 C65.9178125 158.40453125 66.5778125 157.41453125 67.2578125 156.39453125 C64.2878125 155.40453125 61.3178125 154.41453125 58.2578125 153.39453125 C58.2578125 152.73453125 58.2578125 152.07453125 58.2578125 151.39453125 C61.8878125 151.72453125 65.5178125 152.05453125 69.2578125 152.39453125 C69.2578125 151.07453125 69.2578125 149.75453125 69.2578125 148.39453125 C68.69191406 148.28496094 68.12601563 148.17539062 67.54296875 148.0625 C66.80949219 147.90394531 66.07601562 147.74539063 65.3203125 147.58203125 C64.22396484 147.35580078 64.22396484 147.35580078 63.10546875 147.125 C62.49574219 146.88394531 61.88601563 146.64289063 61.2578125 146.39453125 C60.9278125 145.40453125 60.5978125 144.41453125 60.2578125 143.39453125 C63.2278125 143.72453125 66.1978125 144.05453125 69.2578125 144.39453125 C67.19264706 140.26420036 66.35700841 139.52476566 62.203125 137.92578125 C58.47685771 136.90816609 54.74847524 136.64919988 51.2578125 138.39453125 C43.64660297 138.0320927 37.08309184 135.8919876 29.9453125 133.33203125 C28.81625488 132.93443604 27.68719727 132.53684082 26.52392578 132.12719727 C16.32070732 128.49777286 6.26172885 124.53836567 -3.7421875 120.39453125 C-3.4121875 118.74453125 -3.0821875 117.09453125 -2.7421875 115.39453125 C1.69712986 115.97847733 5.33963129 117.12864686 9.4453125 118.89453125 C16.92994827 121.98487909 24.54037143 124.69576985 32.1953125 127.33203125 C33.93687622 127.95271484 33.93687622 127.95271484 35.71362305 128.5859375 C37.38871948 129.15441406 37.38871948 129.15441406 39.09765625 129.734375 C40.09144287 130.07847412 41.08522949 130.42257324 42.10913086 130.77709961 C46.14357658 131.5682226 49.21248608 131.07016387 53.2578125 130.39453125 C53.33454618 123.51187368 53.38669617 116.62932841 53.42260742 109.74633789 C53.4375951 107.41003294 53.45799217 105.07375563 53.48413086 102.73754883 C53.72406965 80.72434067 52.52310209 63.23653757 36.5 46.5390625 C29.63537887 39.97342313 20.05237093 32.39453125 10.2578125 32.39453125 C8.7373587 34.21155228 8.7373587 34.21155228 7.5078125 36.58203125 C3.94887569 42.33247622 -0.37809223 45.27316616 -6.7421875 47.39453125 C-15.48092098 48.18079262 -22.7623386 48.14176854 -29.7421875 42.39453125 C-31.56555366 40.47685305 -33.12751004 38.49850492 -34.7421875 36.39453125 C-35.4021875 36.39453125 -36.0621875 36.39453125 -36.7421875 36.39453125 C-37.9178125 37.57015625 -37.9178125 37.57015625 -39.1171875 38.76953125 C-43.38304524 43.03538899 -46.40653295 43.73550407 -52.4296875 43.89453125 C-59.37292773 43.78615601 -63.83455031 42.36688454 -68.7421875 37.39453125 C-70.4254645 35.09665175 -71.54295481 33.00155884 -72.7421875 30.39453125 C-77.6921875 30.39453125 -82.6421875 30.39453125 -87.7421875 30.39453125 C-88.4021875 32.04453125 -89.0621875 33.69453125 -89.7421875 35.39453125 C-91.0621875 35.39453125 -92.3821875 35.39453125 -93.7421875 35.39453125 C-93.79826172 34.47220703 -93.79826172 34.47220703 -93.85546875 33.53125 C-93.95408203 32.31888672 -93.95408203 32.31888672 -94.0546875 31.08203125 C-94.11269531 30.28152344 -94.17070312 29.48101562 -94.23046875 28.65625 C-94.8305325 26.00405985 -95.58279439 25.01274967 -97.7421875 23.39453125 C-99.87964672 23.64599704 -101.20144529 23.85378904 -102.7421875 25.39453125 C-102.97411615 26.90922573 -103.15433988 28.43207687 -103.3046875 29.95703125 C-103.38847656 30.78332031 -103.47226563 31.60960937 -103.55859375 32.4609375 C-103.64947266 33.41806641 -103.64947266 33.41806641 -103.7421875 34.39453125 C-105.3921875 34.39453125 -107.0421875 34.39453125 -108.7421875 34.39453125 C-109.2371875 32.41453125 -109.2371875 32.41453125 -109.7421875 30.39453125 C-110.4021875 30.39453125 -111.0621875 30.39453125 -111.7421875 30.39453125 C-112.0721875 32.04453125 -112.4021875 33.69453125 -112.7421875 35.39453125 C-114.3921875 35.72453125 -116.0421875 36.05453125 -117.7421875 36.39453125 C-117.79117188 35.62367188 -117.84015625 34.8528125 -117.890625 34.05859375 C-117.96539062 33.05570313 -118.04015625 32.0528125 -118.1171875 31.01953125 C-118.18679687 30.02179688 -118.25640625 29.0240625 -118.328125 27.99609375 C-118.50582714 25.23944246 -118.50582714 25.23944246 -120.7421875 23.39453125 C-122.0621875 23.39453125 -123.3821875 23.39453125 -124.7421875 23.39453125 Z " fill="#525175" transform="translate(253.7421875,108.60546875)"/>
<path d="M0 0 C0.90298828 -0.03222656 1.80597656 -0.06445312 2.73632812 -0.09765625 C8.67226291 -0.10625282 12.37417434 0.98240406 16.89916992 4.89038086 C22.3798487 10.60595736 23.85074253 17.44955486 25.6875 24.9375 C25.93886719 25.91912109 26.19023437 26.90074219 26.44921875 27.91210938 C27.18194761 30.81041645 27.88069272 33.71432382 28.5625 36.625 C28.75827637 37.44540771 28.95405273 38.26581543 29.15576172 39.11108398 C30.69173931 46.05683388 31.13640467 52.96695085 31.4375 60.0625 C31.54578125 61.78823242 31.54578125 61.78823242 31.65625 63.54882812 C32.04612059 72.60305967 30.62922126 79.83808005 25.703125 87.52734375 C19.5666965 94.13287939 13.55623147 98.09658539 4.4609375 98.8984375 C-5.0459817 99.17247286 -11.55020387 98.01938934 -18.72265625 91.5703125 C-25.86062891 84.08256622 -27.69386611 78.16264445 -27.60693359 67.98583984 C-27.3357601 59.06697832 -26.42101513 50.17294783 -25.57592773 41.29418945 C-25.24929838 37.80500503 -24.95178688 34.31403931 -24.65429688 30.82226562 C-24.44450155 28.58316459 -24.23297321 26.34422511 -24.01953125 24.10546875 C-23.93596878 23.071978 -23.85240631 22.03848724 -23.76631165 20.97367859 C-23.04873136 13.93291345 -21.36814763 7.97728648 -15.80783081 3.23512268 C-10.99927417 -0.12998486 -5.67733345 -0.04035063 0 0 Z " fill="#FEFEFE" transform="translate(212.4375,244.375)"/>
<path d="M0 0 C4.5893576 1.96811161 7.486004 4.66778541 9.90234375 9.03515625 C11.91239388 14.62793462 11.47461115 20.19726031 9.62109375 25.7578125 C6.51618512 30.10468459 2.70129468 33.27778353 -2.25390625 35.3828125 C-7.6390555 36.2388621 -12.1099371 35.65131435 -16.6875 32.65625 C-20.32642713 29.69792021 -23.79762414 25.88404811 -25.25390625 21.3828125 C-25.88732848 15.04859018 -24.87756231 10.65998152 -21.25390625 5.3828125 C-14.9733729 -0.58369419 -8.4316789 -2.30884795 0 0 Z " fill="#FAFAFA" transform="translate(247.25390625,114.6171875)"/>
<path d="M0 0 C4.13787177 1.74710141 6.79711191 4.0837545 9 8 C9.73106127 12.4337512 10.03847402 16.84644322 8.046875 20.9765625 C5.54862761 24.18633604 2.92306702 26.06593642 -1 27 C-5.28317228 27.46725516 -7.42893678 27.30749558 -11.25 25.25 C-15.32315213 21.91742098 -17.04797566 19.83133365 -17.9375 14.625 C-18.22167343 11.09313026 -18.0049705 10.01013217 -16.375 6.6875 C-11.19469279 0.82557342 -7.83010963 -1.16952457 0 0 Z " fill="#FAFAFB" transform="translate(205,119)"/>
<path d="M0 0 C3.63 0 7.26 0 11 0 C9.47826087 22.52173913 9.47826087 22.52173913 6 26 C-1.0136486 25.94030937 -8.07630351 24.60832809 -15 23.5625 C-16.25562744 23.37929199 -16.25562744 23.37929199 -17.53662109 23.19238281 C-18.32891113 23.06831055 -19.12120117 22.94423828 -19.9375 22.81640625 C-21.00291016 22.65313843 -21.00291016 22.65313843 -22.08984375 22.48657227 C-24 22 -24 22 -27 20 C-26.67 18.68 -26.34 17.36 -26 16 C-24.24623047 16.16048828 -24.24623047 16.16048828 -22.45703125 16.32421875 C-20.90892312 16.44619091 -19.36074175 16.56723592 -17.8125 16.6875 C-17.04357422 16.76033203 -16.27464844 16.83316406 -15.48242188 16.90820312 C-10.77574643 17.25160863 -7.76846912 17.21490868 -4 14 C-2.06819924 11.1083737 -1.50006516 8.14321088 -0.875 4.75 C-0.58625 3.1825 -0.2975 1.615 0 0 Z " fill="#6EC76C" transform="translate(221,362)"/>
<path d="M0 0 C0.19724771 11.63761468 0.19724771 11.63761468 -2.8125 15.0625 C-3.8953125 16.0215625 -3.8953125 16.0215625 -5 17 C-5.8971875 18.0209375 -5.8971875 18.0209375 -6.8125 19.0625 C-10.50983447 22.33728196 -14.37024011 23.81195078 -19.25 24.375 C-22 24 -22 24 -23.875 22.5 C-24.24625 22.005 -24.6175 21.51 -25 21 C-19.375 18 -19.375 18 -16 18 C-16 16.68 -16 15.36 -16 14 C-16.61488281 14.2165625 -17.22976562 14.433125 -17.86328125 14.65625 C-18.67152344 14.9346875 -19.47976562 15.213125 -20.3125 15.5 C-21.11300781 15.7784375 -21.91351563 16.056875 -22.73828125 16.34375 C-25 17 -25 17 -28 17 C-28 15.68 -28 14.36 -28 13 C-27.43410156 12.81824219 -26.86820313 12.63648438 -26.28515625 12.44921875 C-25.18494141 12.07216797 -25.18494141 12.07216797 -24.0625 11.6875 C-23.33160156 11.44386719 -22.60070312 11.20023437 -21.84765625 10.94921875 C-19.64067976 10.08759559 -19.64067976 10.08759559 -19 7 C-21.97 7.66 -24.94 8.32 -28 9 C-25.74524574 4.49049148 -24.41520623 3.28936619 -20 1 C-16.12277105 0.43617985 -12.57830507 0.88878749 -8.75 1.625 C-5.05438682 2.12894725 -3.4406287 0 0 0 Z " fill="#6FC16E" transform="translate(177,248)"/>
<path d="M0 0 C3.63 0 7.26 0 11 0 C11.84334329 2.22582389 12.67478551 4.45496026 13.5 6.6875 C13.73847656 7.31333984 13.97695313 7.93917969 14.22265625 8.58398438 C15.5412725 12.18192299 16.29329235 15.16520253 16 19 C9.64251556 21.71550843 3.15894659 24.062721 -3.375 26.3125 C-4.15987793 26.59109863 -4.94475586 26.86969727 -5.75341797 27.15673828 C-6.50252441 27.41052246 -7.25163086 27.66430664 -8.0234375 27.92578125 C-8.69294434 28.15692627 -9.36245117 28.38807129 -10.05224609 28.6262207 C-12.33176748 29.06366709 -13.81176361 28.70856888 -16 28 C-16 26.68 -16 25.36 -16 24 C-14.64455078 23.51080078 -14.64455078 23.51080078 -13.26171875 23.01171875 C-12.08222656 22.57472656 -10.90273438 22.13773437 -9.6875 21.6875 C-8.51574219 21.25824219 -7.34398437 20.82898438 -6.13671875 20.38671875 C-3.3327904 19.14712402 -1.81287643 18.40685641 0 16 C1.78141946 10.65574163 1.06384343 5.45219759 0 0 Z " fill="#6EC66C" transform="translate(296,362)"/>
<path d="M0 0 C2.44064587 5.64399358 2.19289099 10.97751478 2 17 C-3.77378925 16.5188509 -7.95859836 14.81532819 -13 12 C-13 9 -13 9 -11.1015625 6.9921875 C-10.28429687 6.29351562 -9.46703125 5.59484375 -8.625 4.875 C-7.81289063 4.17117188 -7.00078125 3.46734375 -6.1640625 2.7421875 C-2.75784753 0 -2.75784753 0 0 0 Z " fill="#ABDEB7" transform="translate(345,290)"/>
<path d="M0 0 C3.4375 0.75 3.4375 0.75 5.4375 2.75 C5.75287716 7.08643601 5.88647847 9.07653229 3.4375 12.75 C-0.1875 13.4375 -0.1875 13.4375 -3.5625 13.75 C-4.2225 12.43 -4.8825 11.11 -5.5625 9.75 C-4.9025 8.76 -4.2425 7.77 -3.5625 6.75 C-4.8825 6.75 -6.2025 6.75 -7.5625 6.75 C-7.25 4.375 -7.25 4.375 -6.5625 1.75 C-3.5625 -0.25 -3.5625 -0.25 0 0 Z " fill="#2C2C2C" transform="translate(235.5625,126.25)"/>
<path d="M0 0 C1.00496852 3.01490557 1.10335303 5.04181692 1.0625 8.1875 C1.05347656 9.08855469 1.04445313 9.98960937 1.03515625 10.91796875 C1.02355469 11.60503906 1.01195312 12.29210937 1 13 C-3.54805635 13.17835515 -6.8794254 12.99785435 -11 11 C-5.07692308 0 -5.07692308 0 0 0 Z " fill="#ABDEB7" transform="translate(372,299)"/>
<path d="M0 0 C3.32532111 2.69192661 4.52454943 6.06546515 6 10 C6 10.99 6 11.98 6 13 C2.7 13 -0.6 13 -4 13 C-2.25 3.375 -2.25 3.375 0 0 Z " fill="#F4EB61" transform="translate(196,168)"/>
<path d="M0 0 C4.3590077 3.48720616 4.94552183 6.72760915 6 12 C4.741875 12.020625 3.48375 12.04125 2.1875 12.0625 C1.47980469 12.07410156 0.77210938 12.08570313 0.04296875 12.09765625 C-2 12 -2 12 -5 11 C-4.46884894 6.48521602 -2.63379708 3.65333143 0 0 Z " fill="#F5F5F7" transform="translate(173,167)"/>
<path d="M0 0 C2.4375 0.75 2.4375 0.75 4.4375 2.75 C4.10778521 6.04714793 3.8148161 7.3726839 1.4375 9.75 C-1.6875 9.375 -1.6875 9.375 -4.5625 8.75 C-4.8925 6.44 -5.2225 4.13 -5.5625 1.75 C-2.5625 -0.25 -2.5625 -0.25 0 0 Z " fill="#535674" transform="translate(253.5625,255.25)"/>
<path d="M0 0 C3.0625 0.1875 3.0625 0.1875 5.0625 2.1875 C4.48557692 8.76442308 4.48557692 8.76442308 3.0625 10.1875 C1.06291636 10.22830783 -0.93795254 10.23004356 -2.9375 10.1875 C-2.9375 7.1875 -2.9375 7.1875 -1.9375 5.1875 C-2.9275 5.1875 -3.9175 5.1875 -4.9375 5.1875 C-3.82120474 0.24390669 -3.82120474 0.24390669 0 0 Z " fill="#2E2E2E" transform="translate(195.9375,127.8125)"/>
<path d="M0 0 C1.67542976 0.28604898 3.34385343 0.61781233 5 1 C5 3.31 5 5.62 5 8 C2.69 8.66 0.38 9.32 -2 10 C-1.85950482 8.52031676 -1.71245174 7.04125484 -1.5625 5.5625 C-1.48128906 4.73878906 -1.40007812 3.91507813 -1.31640625 3.06640625 C-1 1 -1 1 0 0 Z " fill="#6ABE6A" transform="translate(129,132)"/>
<path d="M0 0 C2.89932357 2.39509338 3.50168276 4.31245243 4 8 C1.03 8 -1.94 8 -5 8 C-2.25 2.25 -2.25 2.25 0 0 Z " fill="#9FCCAE" transform="translate(394,305)"/>
<path d="M0 0 C0.99 0.33 1.98 0.66 3 1 C3 2.98 3 4.96 3 7 C1.02 7 -0.96 7 -3 7 C-1.125 1.125 -1.125 1.125 0 0 Z " fill="#F0EFF3" transform="translate(149,169)"/>
<path d="M0 0 C2.0625 0.4375 2.0625 0.4375 4 1 C3.67 2.32 3.34 3.64 3 5 C1.35 5.33 -0.3 5.66 -2 6 C-1.125 1.125 -1.125 1.125 0 0 Z " fill="#549654" transform="translate(129,136)"/>
<path d="M0 0 C0.33 0.66 0.66 1.32 1 2 C3.02463255 2.65213292 3.02463255 2.65213292 5 3 C4.67 4.32 4.34 5.64 4 7 C2.68 6.67 1.36 6.34 0 6 C0 4.02 0 2.04 0 0 Z " fill="#539554" transform="translate(151,134)"/>
</svg>
